<svg xmlns="http://www.w3.org/2000/svg" version="1.0" width="2200" height="700">
  <title>TSDuck logo and name</title>
  <rect x="0" y="0" width="2200" height="700" rx="150" fill="#fefee3"/>
  <svg x="100" y="100">
    <circle fill="#2c6e49" stroke-width="0" cx="250" cy="250" r="250"/>
    <path fill="#4c956c" stroke-width="0" d="M 250,0 a 250,250 0 0 0 0,500 Z"/>
    <polyline fill="none" stroke="#fefee3" stroke-width="40" stroke-linecap="round" stroke-linejoin="round"
              points="112,286 152,235 193,287 244,185 290,325 359,162 397,213"/>
    <svg x="550" y="100">
      <g stroke-linecap="round" stroke-width="0" fill="#2c6e49">
        <path vector-effect="non-scaling-stroke" d="M 1331.055 190.039 L 1407.813 296.094 L 1333.789 296.094 L 1269.922 196.875 L 1269.141 196.875 L 1269.141 296.094 L 1207.422 296.094 L 1207.422 0 L 1269.141 0 L 1269.141 188.477 L 1269.922 188.477 L 1329.492 96.094 L 1402.734 96.094 L 1331.055 190.039 Z M 247.461 285.352 L 247.461 222.852 Q 264.453 237.109 284.375 244.238 A 118.656 118.656 0 0 0 324.609 251.367 A 111.646 111.646 0 0 0 334.413 250.96 Q 340.394 250.431 345.41 249.219 A 61.25 61.25 0 0 0 352.387 247.111 Q 356.81 245.464 360.254 243.262 A 30.322 30.322 0 0 0 365.173 239.391 A 23.082 23.082 0 0 0 369.141 234.277 A 22.416 22.416 0 0 0 372.07 223.047 Q 372.07 214.844 367.383 208.398 A 43.707 43.707 0 0 0 361.438 201.826 A 59.794 59.794 0 0 0 354.59 196.484 A 112.518 112.518 0 0 0 345.878 191.196 Q 341.005 188.516 335.352 185.938 A 615.522 615.522 0 0 0 320.749 179.514 A 746.48 746.48 0 0 0 311.328 175.586 A 172.447 172.447 0 0 1 289.901 164.977 Q 279.166 158.632 271.108 151.316 A 84.859 84.859 0 0 1 262.402 142.187 A 71.248 71.248 0 0 1 246.549 101.491 A 91.725 91.725 0 0 1 246.289 94.531 A 91.34 91.34 0 0 1 247.971 76.568 A 66.9 66.9 0 0 1 255.078 56.934 Q 263.867 41.211 279.004 31.055 A 102.008 102.008 0 0 1 303.235 19.23 A 123.785 123.785 0 0 1 314.063 16.113 A 175.871 175.871 0 0 1 347.983 11.496 A 201.274 201.274 0 0 1 356.25 11.328 A 311.606 311.606 0 0 1 374.437 11.833 Q 383.439 12.36 391.4 13.438 A 180.72 180.72 0 0 1 395.02 13.965 A 161.733 161.733 0 0 1 416.058 18.645 A 136.79 136.79 0 0 1 426.172 22.07 L 426.172 80.469 A 93.646 93.646 0 0 0 411.872 72.343 A 103.402 103.402 0 0 0 410.84 71.875 A 121.473 121.473 0 0 0 393.75 65.723 A 130.352 130.352 0 0 0 376.27 62.109 A 132.058 132.058 0 0 0 365.749 61.102 A 111.032 111.032 0 0 0 359.766 60.937 A 97.441 97.441 0 0 0 348.903 61.516 A 74.941 74.941 0 0 0 340.234 62.988 A 61.663 61.663 0 0 0 333.067 65.1 Q 329.364 66.455 326.311 68.205 A 36.299 36.299 0 0 0 325.391 68.75 A 32.18 32.18 0 0 0 319.874 72.966 A 25.802 25.802 0 0 0 316.016 77.637 A 21.064 21.064 0 0 0 312.695 89.258 A 22.698 22.698 0 0 0 314.592 98.562 A 22.014 22.014 0 0 0 316.406 101.855 A 35.713 35.713 0 0 0 320.898 107.275 Q 323.206 109.583 326.111 111.777 A 60.358 60.358 0 0 0 326.953 112.402 A 90.304 90.304 0 0 0 333.495 116.723 Q 336.92 118.788 340.866 120.818 A 153.682 153.682 0 0 0 343.555 122.168 A 325.49 325.49 0 0 0 353.955 127.026 A 440.59 440.59 0 0 0 365.625 132.031 A 272.855 272.855 0 0 1 383.44 140.219 A 215.03 215.03 0 0 1 395.801 146.973 A 114.821 114.821 0 0 1 411.037 157.661 A 96.481 96.481 0 0 1 418.75 164.844 A 69.618 69.618 0 0 1 433.398 187.598 Q 438.439 200.297 438.476 217.134 A 113.414 113.414 0 0 1 438.477 217.383 A 102.488 102.488 0 0 1 437.066 234.866 Q 434.936 247.163 429.59 256.738 Q 420.703 272.656 405.469 282.52 Q 390.234 292.383 370.02 296.68 A 200.037 200.037 0 0 1 335.688 300.826 A 228.403 228.403 0 0 1 327.344 300.977 Q 304.297 300.977 283.496 297.07 A 157.334 157.334 0 0 1 265.218 292.55 Q 255.705 289.55 247.714 285.481 A 97.658 97.658 0 0 1 247.461 285.352 Z M 963.477 96.094 L 963.477 296.094 L 901.953 296.094 L 901.953 265.625 L 900.977 265.625 A 86.9 86.9 0 0 1 883.443 285.752 A 66.435 66.435 0 0 1 839.844 300.977 A 81.327 81.327 0 0 1 809.832 295.878 Q 774.413 281.881 770.738 229.452 A 181.126 181.126 0 0 1 770.313 216.797 L 770.313 96.094 L 831.836 96.094 L 831.836 211.328 A 78.472 78.472 0 0 0 833.222 226.797 Q 838.069 250.787 859.865 253.393 A 46.883 46.883 0 0 0 865.43 253.711 A 38.335 38.335 0 0 0 877.822 251.793 A 31.94 31.94 0 0 0 891.992 242.09 A 39.367 39.367 0 0 0 900.047 226.39 Q 901.596 220.599 901.886 213.759 A 75.724 75.724 0 0 0 901.953 210.547 L 901.953 96.094 L 963.477 96.094 Z M 222.656 16.016 L 222.656 67.383 L 142.773 67.383 L 142.773 296.094 L 79.492 296.094 L 79.492 67.383 L 0 67.383 L 0 16.016 L 222.656 16.016 Z M 583.789 296.094 L 484.57 296.094 L 484.57 16.016 L 583.789 16.016 Q 710.411 16.016 729.586 114.321 A 199.829 199.829 0 0 1 733.008 152.539 Q 733.008 217.969 692.285 257.031 Q 651.563 296.094 583.789 296.094 Z M 1166.992 239.258 L 1166.992 288.867 A 75.354 75.354 0 0 1 1149.575 296.007 Q 1132.467 300.821 1108.213 300.972 A 253.472 253.472 0 0 1 1106.641 300.977 A 124.034 124.034 0 0 1 1073.312 296.715 A 93.992 93.992 0 0 1 1032.031 273.047 A 93.794 93.794 0 0 1 1004.019 212.415 A 127.314 127.314 0 0 1 1003.516 200.977 A 137.222 137.222 0 0 1 1007.463 167.124 A 95.849 95.849 0 0 1 1034.082 120.605 A 102.724 102.724 0 0 1 1085.85 94.081 A 148.89 148.89 0 0 1 1115.82 91.211 A 212.351 212.351 0 0 1 1133.223 91.872 Q 1155.374 93.701 1166.992 100.586 L 1166.992 152.93 Q 1147.656 138.477 1123.828 138.477 A 73.593 73.593 0 0 0 1106.162 140.482 A 51.119 51.119 0 0 0 1081.738 154.004 Q 1066.211 169.531 1066.211 196.875 Q 1066.211 223.438 1081.055 238.574 Q 1095.898 253.711 1121.875 253.711 A 76.895 76.895 0 0 0 1155.198 245.916 A 99.574 99.574 0 0 0 1166.992 239.258 Z M 578.516 67.383 L 547.656 67.383 L 547.656 244.922 L 578.906 244.922 A 109.917 109.917 0 0 0 606.036 241.761 A 75.902 75.902 0 0 0 643.262 220.313 A 82.177 82.177 0 0 0 663.455 182.049 Q 666.503 169.294 666.598 154.291 A 152.814 152.814 0 0 0 666.602 153.32 Q 666.602 113.281 643.457 90.332 Q 621.465 68.526 582.633 67.44 A 147.273 147.273 0 0 0 578.516 67.383 Z"/>
      </g>
    </svg>
  </svg>
</svg>
